<?xml version="1.0" encoding="UTF-8" standalone="no"?>
<!-- Created with Inkscape (http://www.inkscape.org/) -->

<svg
   width="14.816666mm"
   height="7.6748204mm"
   viewBox="0 0 14.816666 7.6748204"
   version="1.1"
   id="svg1"
   xmlns="http://www.w3.org/2000/svg"
   xmlns:svg="http://www.w3.org/2000/svg">
  <defs
     id="defs1" />
  <g
     id="layer1"
     transform="translate(-109.47981,-3.564726)">
    <g
       id="g290"
       transform="matrix(0.8527578,0,0,0.8527578,107.50614,-1.5518207)">
      <path
         style="color:#232629;fill:currentColor;fill-opacity:1;stroke:none"
         d="m 11,6 a 10,9.9999752 0 0 0 -8.6855469,5.070312 c 0.1851088,0.291428 0.4456268,0.526926 0.7519531,0.689454 A 9,8.9999781 0 0 1 11,7 a 4,4 0 0 0 -4,4 4,4 0 0 0 4,4 4,4 0 0 0 4,-4 4,4 0 0 0 -3.65625,-3.9824219 9,8.9999781 0 0 1 7.587891,4.7441409 c 0.309422,-0.163642 0.571983,-0.402424 0.757812,-0.697266 A 10,9.9999752 0 0 0 11,6 Z m 0,2 a 3,3 0 0 1 3,3 3,3 0 0 1 -3,3 3,3 0 0 1 -3,-3 3,3 0 0 1 3,-3 z"
         class="ColorScheme-Text"
         id="path1-60" />
      <path
         style="fill:#da4453;fill-opacity:1;stroke:none"
         d="m 11,9 a 1.9999999,2.0000005 0 0 0 -2,2 1.9999999,2.0000005 0 0 0 2,2 1.9999999,2.0000005 0 0 0 2,-2 A 1.9999999,2.0000005 0 0 0 12.91016,10.412109 0.99999984,1 0 0 1 12,11 0.99999984,1 0 0 1 11,10 0.99999984,1 0 0 1 11.589844,9.0898438 1.9999999,2.0000005 0 0 0 11,9 Z"
         id="path2-8" />
    </g>
  </g>
</svg>
