<?xml version="1.0" encoding="UTF-8" standalone="no"?>
<!-- Created with Inkscape (http://www.inkscape.org/) -->

<svg
   width="15.875004mm"
   height="14.94124mm"
   viewBox="0 0 15.875004 14.94124"
   version="1.1"
   id="svg1"
   xmlns="http://www.w3.org/2000/svg"
   xmlns:svg="http://www.w3.org/2000/svg">
  <defs
     id="defs1" />
  <g
     id="layer1"
     transform="translate(-54.054051,-0.72258658)">
    <g
       id="g1"
       transform="translate(-7.1157125,0.55304421)">
      <path
         style="color:#232629;display:inline;fill:currentColor;fill-opacity:1;stroke:none;stroke-width:0.933827"
         d="m 68.640376,0.16954231 c 0,0 -1.86765,2.48165999 -7.47061,3.10423999 0,0 0,8.7162297 7.47061,11.8369997 7.47062,-3.12077 7.47062,-11.8369997 7.47062,-11.8369997 -5.60296,-0.62258 -7.47062,-3.10423999 -7.47062,-3.10423999 z m 0,1.28583999 c 1.48198,1.25579 3.6206,2.09344 6.39271,2.51513 -0.15059,1.34956 -0.29498,2.36519 -0.64383,3.34682 -0.73314,2.06291 -1.58795,3.3179097 -2.35463,4.2204597 -1.18804,1.39855 -2.26694,1.96464 -3.39425,2.52789 -1.1273,-0.56324 -2.2062,-1.12934 -3.39424,-2.52789 -0.76668,-0.90255 -1.62149,-2.1575497 -2.35463,-4.2204597 -0.34885,-0.98164 -0.49324,-1.99726 -0.64383,-3.34682 2.77211,-0.42169 4.91073,-1.25934 6.3927,-2.51513 z m 0,1.11987 c -1.62811,1.13018 -3.45716,1.70256 -5.2929,2.09199 0.86925,4.93245 2.7418,7.0416997 5.2929,8.3624897 z"
         class="ColorScheme-Text"
         id="path4943-9-4-1-3-2" />
      <g
         id="g288"
         transform="matrix(0.93382677,0,0,0.93382677,58.368286,-964.81175)">
        <path
           style="color:#f67400;fill:currentColor;fill-opacity:1;stroke:none"
           class="ColorScheme-NeutralText"
           d="m 15.5,1041.3602 h 0.0039 a 0.5,0.5 0 0 1 0.439453,0.2695 h 0.0039 l 3.986328,6.9746 h -0.002 a 0.5,0.5 0 0 1 0.06836,0.252 0.5,0.5 0 0 1 -0.5,0.5 h -8 a 0.5,0.5 0 0 1 -0.5,-0.5 0.5,0.5 0 0 1 0.06836,-0.252 h -0.002 l 3.986328,-6.9727 h 0.002 a 0.5,0.5 0 0 1 0.002,0 0.5,0.5 0 0 1 0.443359,-0.2715 v 0 z"
           id="path4250-7-2" />
        <path
           style="opacity:1;fill:#ffffff;fill-opacity:1;stroke:none"
           d="m 15,13 v 3 h 1 v -3 z m 0,4 v 1 h 1 v -1 z"
           transform="translate(0,1030.3622)"
           id="rect4241-9-2" />
      </g>
    </g>
  </g>
</svg>
