<?xml version="1.0" encoding="UTF-8" standalone="no"?>
<!-- Created with Inkscape (http://www.inkscape.org/) -->

<svg
   width="13.758333mm"
   height="13.75857mm"
   viewBox="0 0 13.758333 13.75857"
   version="1.1"
   id="svg1"
   xmlns="http://www.w3.org/2000/svg"
   xmlns:svg="http://www.w3.org/2000/svg">
  <defs
     id="defs1" />
  <g
     id="layer1"
     transform="translate(-82.511164,-1.2077454)">
    <path
       fill="currentColor"
       d="m 82.511262,4.5090353 v -3.21569 c 0,-0.0759 0,-0.0856 0.0856,-0.0856 h 6.41207 c 0.0952,0 0.10414,0 0.10414,0.0952 v 6.41206 c 0,0.0952 0,0.0952 -0.10414,0.0952 h -6.41207 c -0.0759,0 -0.0856,0 -0.0856,-0.0862 z m 3.30122,10.4569807 h -3.21572 c -0.0759,0 -0.0856,0 -0.0856,-0.0862 V 8.5257453 c 0,-0.095 0,-0.095 0.095,-0.095 h 6.42174 c 0.0759,0 0.0856,0 0.0856,0.0856 v 6.3733707 c 0,0.0668 0,0.0766 -0.0862,0.0766 z M 96.269432,4.5090353 v 3.20528 c 0,0.0862 0,0.0862 -0.0862,0.0862 h -6.36373 c -0.0759,0 -0.0953,0 -0.0953,-0.0856 v -6.42172 c 0,-0.0668 0,-0.0759 0.0856,-0.0759 h 6.30644 c 0.15325,0 0.15325,0 0.15325,0.15242 z m -6.51693,7.1847507 V 8.5160153 c 0,-0.0668 0,-0.0856 0.0765,-0.0668 h 6.41132 c 0.019,0 0,0.0668 0,0.10562 v 6.3347107 a 0.04462115,0.04462115 0 0 1 -0.0126,0.0447 0.04462115,0.04462115 0 0 1 -0.0447,0.0126 h -6.39123 c 0,0 -0.0668,0 -0.0573,-0.0668 v -3.18595 z"
       id="path1-02"
       style="display:inline;stroke-width:0.743686" />
  </g>
</svg>
